<svg version="1.1" id="Layer_1" xmlns="http://www.w3.org/2000/svg" xmlns:xlink="http://www.w3.org/1999/xlink" x="0px" y="0px"
	 width="100%" viewBox="0 0 1024 1536" enable-background="new 0 0 1024 1536" xml:space="preserve">
<path fill="none" opacity="1.000000" stroke="#000000" stroke-linecap="round" stroke-linejoin="round" stroke-width="5.000000"
	d="
M503.500000,752.500000 
	C501.000000,755.333313 498.383606,758.075989 496.065735,761.051208 
	C495.298065,762.036621 495.204590,763.503967 495.443054,765.009033 
	C497.992889,781.100586 497.734161,797.389893 496.750000,813.484741 
	C495.397705,835.600037 491.339417,857.414612 486.185852,879.044250 
	C483.350159,890.945679 481.377655,903.099670 480.824402,915.492188 
	C480.281281,927.657410 479.592224,939.833923 478.835480,951.989746 
	C477.960571,966.043823 476.930725,980.101440 474.181763,994.035889 
	C471.592865,1007.159119 467.554535,1019.907532 465.119019,1033.022095 
	C464.215851,1037.885376 464.121460,1043.057739 464.643341,1047.984863 
	C465.243774,1053.653564 464.920868,1059.330322 465.800720,1065.030762 
	C467.002594,1072.817017 468.251801,1080.638062 469.281097,1088.463013 
	C470.157166,1095.123169 471.390869,1101.839233 471.824097,1108.511475 
	C472.492218,1118.801392 472.510040,1129.199463 471.846985,1139.490112 
	C471.262054,1148.567871 469.598175,1157.576538 467.594452,1166.521118 
	C464.579895,1179.978027 461.175812,1193.328979 458.817352,1206.968384 
	C453.594086,1237.175537 453.773193,1267.571899 454.111816,1297.998779 
	C454.183563,1304.444580 456.065155,1310.795654 458.005890,1316.998169 
	C460.549225,1325.126587 459.454773,1333.325562 456.801392,1340.930664 
	C453.606995,1350.086548 455.137604,1359.119141 456.307312,1367.959351 
	C457.232117,1374.948242 459.615509,1381.999268 459.770966,1389.005127 
	C460.068512,1402.411011 455.311401,1407.936401 442.961945,1410.838013 
	C429.258698,1414.057495 415.962616,1412.168335 403.993317,1404.009766 
	C399.185150,1400.732422 393.530365,1399.901001 387.989441,1399.070435 
	C382.020905,1398.175659 376.401520,1396.654785 371.494537,1393.007324 
	C370.531372,1392.291260 370.064819,1391.120972 368.508331,1390.931519 
	C363.633179,1390.338257 362.454529,1386.490845 362.063232,1382.493774 
	C361.662445,1378.400024 364.606262,1374.218750 368.497131,1372.493530 
	C370.608765,1371.557251 373.048157,1371.170410 374.083740,1368.532837 
	C374.365143,1367.816162 375.692322,1367.032104 376.495789,1367.076172 
	C381.611847,1367.357056 384.067474,1363.730347 387.053711,1360.550415 
	C391.002289,1356.345581 395.333252,1352.499878 399.499939,1348.499878 
"/>
<path fill="none" opacity="1.000000" stroke="#000000" stroke-linecap="round" stroke-linejoin="round" stroke-width="5.000000"
	d="
M559.500000,157.500000 
	C556.939453,170.936783 554.101379,184.294540 552.809998,197.982071 
	C551.998901,206.578323 551.602234,215.024124 553.043335,223.492615 
	C554.272156,230.713608 559.467285,234.940201 565.526245,237.947083 
	C585.289490,247.754990 605.046692,257.591919 625.056641,266.877991 
	C633.555542,270.822083 643.106628,271.873871 652.050659,274.847565 
	C679.173279,283.865112 694.784546,302.675079 700.984253,330.003571 
	C703.671570,341.849457 704.553101,353.910461 703.856995,365.991760 
	C703.588562,370.650970 703.236023,375.324646 702.927246,379.995178 
	C702.394775,388.049347 705.361206,395.435791 707.184631,402.955231 
	C709.394958,412.070251 711.384766,421.110870 712.065369,430.495270 
	C713.154480,445.512970 714.395996,460.530273 716.069885,475.492188 
	C718.074829,493.413666 721.918823,510.969696 727.984192,528.005615 
	C732.373352,540.333618 734.939758,553.088379 737.077698,565.987122 
	C739.908447,583.065308 741.170959,600.244446 740.908020,617.498596 
	C740.684021,632.194824 741.875366,646.826782 742.157043,661.497009 
	C742.397278,674.011597 743.429626,686.581055 745.190613,698.972900 
	C746.469482,707.972168 746.803284,717.030029 748.078918,725.988770 
	C749.201904,733.875732 751.036011,741.660034 752.490173,749.501831 
	C754.033936,757.827026 755.648438,766.143677 756.945984,774.508362 
	C757.764404,779.784485 756.781738,785.083740 754.912109,789.966370 
	C751.101013,799.919434 748.616333,810.218201 745.952026,820.487549 
	C745.453857,822.407837 744.671082,824.439758 743.445435,825.955872 
	C735.280334,836.055481 725.998657,844.987549 714.982422,851.972290 
	C712.399475,853.609985 709.789734,856.252502 706.490173,853.009949 
	C703.875916,850.440857 702.732056,845.525146 705.097717,842.578430 
	C709.400208,837.219299 711.575745,830.778564 714.883728,824.934204 
	C720.567810,814.892212 722.451538,803.972229 720.026794,792.494324 
	C719.824524,791.537048 720.034058,790.498657 719.994507,789.500244 
	C719.732849,782.902771 718.696472,782.203735 712.056641,780.302185 
	C709.868225,779.675476 706.752563,779.318787 705.500000,776.500000 
"/>
<path fill="none" opacity="1.000000" stroke="#000000" stroke-linecap="round" stroke-linejoin="round" stroke-width="5.000000"
	d="
M511.500000,764.000000 
	C510.641602,764.820801 510.036316,765.581543 509.933319,766.995117 
	C508.732178,783.483093 508.241150,800.039612 509.202972,816.488159 
	C510.345490,836.026306 513.559753,855.352112 517.776001,874.549194 
	C520.255737,885.839722 522.247986,897.309326 523.211731,908.982544 
	C524.779846,927.976074 524.600952,947.026001 526.061401,965.995300 
	C527.349976,982.732727 529.762024,999.344116 534.541931,1015.487549 
	C538.568176,1029.085327 540.268372,1042.964844 538.841003,1056.983765 
	C537.834167,1066.873413 536.039978,1076.721191 534.180481,1086.534180 
	C533.220337,1091.600952 532.434265,1096.833862 532.099548,1102.006470 
	C531.421387,1112.484497 530.168152,1122.998901 531.071106,1133.493896 
	C532.439697,1149.399658 535.330383,1165.062866 539.448486,1180.513672 
	C542.026428,1190.186157 543.639099,1200.052002 545.162109,1209.975098 
	C548.728882,1233.214355 549.555420,1256.578491 550.006348,1279.999878 
	C550.274109,1293.907349 548.523560,1307.641968 544.780334,1320.938110 
	C542.937073,1327.485840 544.894409,1333.258179 546.268982,1338.934814 
	C548.360962,1347.574341 547.861267,1355.871216 547.189209,1364.514771 
	C546.459351,1373.901489 543.359375,1382.942871 543.911194,1392.505127 
	C544.383606,1400.690552 548.729431,1407.958374 556.527527,1409.888794 
	C570.679626,1413.392212 584.683960,1413.923462 597.519897,1405.028687 
	C602.885132,1401.310913 609.201599,1399.939209 615.510986,1399.080688 
	C621.525757,1398.261963 627.265503,1397.048706 631.979065,1392.975830 
	C633.469055,1391.688599 635.486755,1391.949707 636.980408,1390.970093 
	C641.195740,1388.205322 641.496887,1383.873413 640.940186,1379.507690 
	C640.433044,1375.530884 637.950439,1372.799438 633.982178,1372.101196 
	C632.133362,1371.776245 631.091797,1371.068237 630.521545,1369.492188 
	C630.072205,1368.250610 628.964478,1367.683105 627.992432,1367.559326 
	C619.003479,1366.413818 614.868103,1358.752075 609.094299,1353.398315 
	C607.216187,1351.656860 605.520325,1349.646362 603.500000,1348.000000 
"/>
<path fill="none" opacity="1.000000" stroke="#000000" stroke-linecap="round" stroke-linejoin="round" stroke-width="5.000000"
	d="
M374.000000,451.500000 
	C377.518646,455.694733 377.762665,461.214935 378.741730,466.052277 
	C381.687805,480.608185 386.994934,494.475037 390.221893,508.950531 
	C392.669312,519.929321 394.870300,530.862671 393.828369,541.983948 
	C392.808533,552.869385 391.083374,563.719177 389.176971,574.531189 
	C387.854309,582.032654 387.395264,589.803528 388.026428,597.497803 
	C388.574615,604.180908 387.122681,610.325623 384.596313,616.539185 
	C378.184784,632.307861 374.311371,648.821106 370.923035,665.484375 
	C368.057281,679.577759 365.824493,693.743042 363.936676,707.991638 
	C362.393372,719.639954 361.170532,731.314148 359.847076,742.982666 
	C357.560852,763.140137 357.628387,783.333862 358.230103,803.493103 
	C358.537872,813.805603 359.475769,824.198181 360.750763,834.530762 
	C361.627808,841.638367 362.318237,848.848206 363.139587,855.983948 
	C364.451080,867.377319 366.507507,878.695312 368.539368,889.992920 
	C371.212341,904.855042 373.516388,919.828491 377.156738,934.460999 
	C382.255432,954.955261 382.189758,975.683533 382.000610,996.500000 
	C381.927765,1004.516785 383.262909,1012.450867 383.085358,1020.501892 
	C382.785828,1034.082031 380.072784,1047.263794 377.527069,1060.505249 
	C375.586151,1070.600708 373.969452,1080.733276 372.832672,1090.981445 
	C371.701233,1101.181641 371.812134,1111.352051 372.146667,1121.495117 
	C372.512390,1132.583252 373.915588,1143.656372 376.517120,1154.495850 
	C381.960541,1177.176147 388.022583,1199.723877 392.803528,1222.541138 
	C395.661499,1236.180908 397.864014,1250.014282 399.153900,1263.985840 
	C400.338379,1276.815186 401.843811,1289.588867 402.076447,1302.498657 
	C402.211578,1309.997437 401.501282,1317.343018 399.421448,1324.477051 
	C397.800964,1330.035645 397.369171,1335.535889 399.057068,1340.982300 
	C402.246460,1351.274048 403.471405,1361.789795 403.500000,1372.500000 
"/>
<path fill="none" opacity="1.000000" stroke="#000000" stroke-linecap="round" stroke-linejoin="round" stroke-width="5.000000"
	d="
M649.500000,369.500000 
	C647.572327,376.244354 644.753662,382.680450 642.901978,389.473297 
	C640.968445,396.566254 640.174744,403.824463 639.129700,411.018829 
	C637.862610,419.741028 636.037720,428.341827 634.403320,436.981720 
	C634.047485,438.862854 634.215942,440.670593 634.003845,442.500458 
	C632.861206,452.358795 628.789307,461.439056 626.391296,470.972656 
	C622.634460,485.909088 617.584839,500.536591 614.228516,515.551086 
	C612.357117,523.923218 612.470581,532.739319 612.777649,541.507812 
	C613.115173,551.146057 614.754517,560.548889 616.163757,569.975525 
	C617.309692,577.641052 618.970093,585.463806 618.200012,592.969238 
	C617.026245,604.409363 621.108032,614.200928 624.375916,624.539246 
	C628.871582,638.761902 632.413940,653.251770 635.145569,667.972961 
	C637.646851,681.452637 639.622375,695.008850 641.896423,708.517456 
	C643.142578,715.919861 643.142517,723.522888 644.038147,730.995422 
	C646.168640,748.772949 647.111023,766.625488 646.899597,784.498840 
	C646.735840,798.338074 646.061523,812.200317 644.887939,825.990479 
	C643.735413,839.534241 642.224182,853.098328 639.864136,866.476013 
	C636.645630,884.719360 633.439087,902.968201 629.268677,921.061951 
	C626.661133,932.374573 624.549072,943.903992 622.824280,955.473816 
	C620.562500,970.645691 621.015015,985.816223 621.110474,1000.999329 
	C621.149597,1007.226379 619.639893,1013.323303 620.046875,1019.496887 
	C620.933655,1032.949585 622.590698,1046.299072 625.434753,1059.514038 
	C627.596985,1069.560669 629.089355,1079.720215 630.178101,1089.981079 
	C631.260559,1100.182861 631.006226,1110.337524 630.910522,1120.499146 
	C630.783264,1134.020630 628.490356,1147.340332 625.466187,1160.492188 
	C619.749817,1185.352417 613.345947,1210.066772 608.227417,1235.046631 
	C606.018372,1245.826904 604.908508,1256.932861 603.798828,1267.979736 
	C602.560242,1280.310791 601.904724,1292.658691 600.984253,1304.998779 
	C600.550598,1310.812744 601.677612,1316.557373 603.220886,1321.936646 
	C605.125061,1328.573853 605.915833,1335.014282 603.917175,1341.474365 
	C600.778015,1351.620972 600.835449,1362.142822 599.500000,1372.500000 
"/>
<path fill="none" opacity="1.000000" stroke="#000000" stroke-linecap="round" stroke-linejoin="round" stroke-width="5.000000"
	d="
M449.000000,158.500000 
	C450.833313,169.333328 452.901550,180.133560 454.434662,191.009216 
	C456.000580,202.117767 457.221008,213.375259 454.833801,224.464218 
	C453.881836,228.886383 450.560028,232.294556 446.563721,235.091049 
	C436.912079,241.844971 425.842529,245.689087 415.466919,250.934570 
	C405.956116,255.742828 396.043365,259.756653 386.536865,264.572754 
	C378.101044,268.846466 368.844299,270.211975 359.980530,272.936615 
	C347.111084,276.892517 335.035278,282.456604 325.615479,292.112640 
	C315.488403,302.493713 309.215271,315.243774 305.955902,329.489899 
	C302.315369,345.401978 302.169556,361.384674 303.969604,377.503387 
	C304.899750,385.832550 301.987152,393.633911 299.929108,401.481415 
	C297.722260,409.896301 295.683685,418.269897 294.897369,426.990753 
	C294.161163,435.155823 293.689941,443.351471 292.849213,451.484406 
	C290.910767,470.236359 289.808136,489.156860 284.928436,507.480957 
	C283.033264,514.597656 280.000732,521.409912 278.074799,528.520264 
	C274.860931,540.385315 271.829956,552.282532 269.877960,564.480469 
	C267.141937,581.578003 265.926361,598.715027 265.961243,616.000061 
	C265.985474,628.004028 265.052582,639.987854 264.797974,651.995728 
	C264.579132,662.315674 263.855103,672.703064 262.813995,682.981140 
	C261.782715,693.162048 261.144135,703.419800 259.125061,713.524963 
	C258.153809,718.385864 259.172760,723.477051 258.107574,728.522705 
	C255.447952,741.120483 253.318787,753.830627 251.004944,766.500916 
	C249.361145,775.502075 249.432556,784.357239 252.975998,793.009827 
	C256.484436,801.577209 258.716919,810.543823 261.047424,819.487671 
	C263.429382,828.628906 270.884186,834.181091 277.113800,840.385742 
	C281.874481,845.127380 287.513580,849.058594 293.098907,852.854492 
	C294.652130,853.909973 296.756958,856.582520 299.531097,854.033875 
	C302.248840,851.537109 303.662323,848.490967 302.779022,845.056824 
	C302.534241,844.105164 301.868378,842.592834 301.136444,841.415222 
	C296.886780,834.577454 293.246338,827.406067 289.885712,820.052246 
	C285.794373,811.099304 285.484741,801.941467 286.507416,792.500793 
	C286.817627,789.637268 287.123627,786.791626 287.937500,783.981873 
	C288.723083,781.269897 290.601227,780.085266 292.999756,780.091431 
	C295.502167,780.097900 294.475769,782.565674 295.086060,783.962402 
	C297.143829,788.671509 296.765411,793.590393 297.057404,798.496582 
	C297.374512,803.824097 298.210724,809.082092 302.489563,813.011353 
	C304.371063,814.739197 306.735535,815.663330 308.957092,814.878540 
	C311.625671,813.935608 312.986633,811.544006 313.022064,808.500244 
	C313.100189,801.784119 312.705780,795.147827 311.631531,788.478821 
	C310.843292,783.585266 310.040466,778.777344 310.700134,773.462769 
	C312.348480,760.183777 311.608765,746.487732 303.762390,735.164673 
	C297.408630,725.995667 298.460876,717.033264 300.523041,707.505005 
	C306.271423,680.944397 317.409515,656.282593 328.154083,631.566956 
	C336.797302,611.684875 342.864990,591.134277 346.834045,569.968872 
	C348.643707,560.318665 349.460602,550.322144 349.322449,540.502502 
	C349.088257,523.850769 353.752594,508.348663 359.142456,493.050201 
	C363.446472,480.833832 366.781372,468.368286 370.641052,456.044159 
	C372.207855,451.041260 374.183441,446.364716 373.017487,440.996216 
	C371.283234,433.010895 369.284943,425.054108 368.140564,416.980072 
	C367.433563,411.991821 366.607910,406.983215 366.134949,401.987213 
	C365.204102,392.154205 362.690399,382.894531 358.571320,373.967102 
	C357.886841,372.483582 358.520599,370.398254 356.500000,369.500000 
"/>
<path fill="none" opacity="1.000000" stroke="#000000" stroke-linecap="round" stroke-linejoin="round" stroke-width="5.000000"
	d="
M634.000000,451.500000 
	C637.317810,455.769196 636.972351,461.175110 638.494019,466.001892 
	C643.010803,480.329926 647.318237,494.727173 652.063904,508.978699 
	C655.215637,518.443542 656.959167,528.106506 656.935364,537.999817 
	C656.888123,557.625183 660.559998,576.651672 665.517517,595.495422 
	C670.153931,613.118591 677.308167,629.824097 684.518005,646.492188 
	C693.584290,667.452148 701.606750,688.780090 706.921570,711.018738 
	C708.641785,718.216431 708.388000,725.064270 704.220520,732.130066 
	C697.995239,742.684875 693.771484,754.374878 695.142029,766.984558 
	C695.876038,773.738159 696.310730,780.362061 694.947571,786.989197 
	C694.127808,790.974792 694.277222,795.044312 693.130005,799.037354 
	C691.911194,803.279480 693.686340,807.693848 694.213501,811.973694 
	C694.577698,814.930542 700.267578,815.923096 702.991821,813.988525 
	C706.431458,811.546143 708.304321,807.805603 708.815552,803.975403 
	C709.341675,800.033081 710.561890,796.104980 710.041809,791.994690 
	C709.548462,788.095398 710.719604,784.451416 712.500000,781.000000 
"/>
<path fill="none" opacity="1.000000" stroke="#000000" stroke-linecap="round" stroke-linejoin="round" stroke-width="3.000000"
	d="
M503.500000,319.500000 
	C504.294464,409.833344 504.344818,500.166656 503.500000,590.500000 
"/>
<path fill="none" opacity="1.000000" stroke="#000000" stroke-linecap="round" stroke-linejoin="round" stroke-width="5.000000"
	d="
M562.000000,142.499985 
	C563.000000,138.833328 563.658020,135.022034 565.125122,131.552887 
	C566.041138,129.386902 564.984619,127.559807 565.337585,125.472534 
	C568.419922,107.244125 568.084106,89.245705 558.950562,72.527000 
	C550.248962,56.598961 536.377197,47.280674 518.983521,43.068165 
	C514.262756,41.924873 509.431610,40.878788 504.500275,41.010464 
	C476.314850,41.763065 448.312683,58.814560 442.929657,90.488045 
	C441.397217,99.504745 440.349426,108.326782 441.763153,117.536354 
	C442.400909,121.690826 442.085388,126.363762 442.845856,130.435394 
	C443.650787,134.745041 445.103729,139.186035 446.500000,143.500000 
"/>
<path fill="none" opacity="1.000000" stroke="#000000" stroke-linecap="round" stroke-linejoin="round" stroke-width="3.000000"
	d="
M542.500000,323.500000 
	C542.925537,333.256104 544.590332,342.859650 545.805359,352.524475 
	C546.729919,359.878540 547.744080,367.201752 549.001099,374.499817 
	C551.294861,387.815948 558.140076,396.893127 574.500122,396.970459 
	C579.499268,396.994110 584.500000,396.666687 589.500000,396.500000 
"/>
<path fill="none" opacity="1.000000" stroke="#000000" stroke-linecap="round" stroke-linejoin="round" stroke-width="3.000000"
	d="
M465.500000,325.500000 
	C465.059326,334.759064 463.421509,343.861267 462.184326,353.024902 
	C461.193909,360.360748 460.239319,367.701324 458.987518,374.997864 
	C456.658966,388.570892 449.028320,396.741486 433.999451,396.961487 
	C428.836334,397.037079 423.666656,396.666687 418.500000,396.500000 
"/>
<path fill="none" opacity="1.000000" stroke="#000000" stroke-linecap="round" stroke-linejoin="round" stroke-width="4.000000"
	d="
M606.500000,758.500000 
	C594.510010,768.614441 580.273193,772.920166 564.999329,774.493286 
	C546.496033,776.399048 528.764404,773.784729 513.141785,763.289001 
	C508.080353,759.888672 503.289001,754.883972 503.484833,747.499573 
	C503.891449,732.169617 503.095154,716.830078 503.934814,701.496460 
	C504.189117,696.852783 503.666687,692.166687 503.500000,687.500000 
"/>
<path fill="none" opacity="1.000000" stroke="#000000" stroke-linecap="round" stroke-linejoin="round" stroke-width="4.000000"
	d="
M402.500000,760.500000 
	C416.190247,770.545898 431.928986,774.358459 448.502899,774.913879 
	C464.103058,775.436646 479.141968,772.912292 492.516296,764.024475 
	C493.055511,763.666077 493.833344,763.666687 494.500000,763.500000 
"/>
<path fill="none" opacity="1.000000" stroke="#000000" stroke-linecap="round" stroke-linejoin="round" stroke-width="5.000000"
	d="
M557.500000,172.500000 
	C562.287292,174.421310 565.126465,171.399368 566.893738,167.945618 
	C570.770569,160.369217 574.263000,152.613144 575.621948,144.019287 
	C576.153381,140.658798 575.543518,137.607849 574.938293,134.512054 
	C573.941956,129.415161 569.887634,129.724701 566.000000,130.000000 
"/>
<path fill="none" opacity="1.000000" stroke="#000000" stroke-linecap="round" stroke-linejoin="round" stroke-width="5.000000"
	d="
M441.500000,130.000000 
	C434.433594,130.000000 430.478149,135.407669 432.001099,142.999771 
	C433.732666,151.631592 436.764526,159.790649 441.006378,167.496490 
	C444.024689,172.979584 445.097534,173.515640 450.500000,172.500000 
"/>
<path fill="none" opacity="1.000000" stroke="#000000" stroke-linecap="round" stroke-linejoin="round" stroke-width="2.000000"
	d="
M716.500000,748.500000 
	C717.441528,758.895569 721.182922,768.498413 726.223755,777.372925 
	C728.653625,781.650696 730.719604,785.707458 730.923767,790.503235 
	C731.059631,793.693298 733.851807,795.711304 733.229370,799.537292 
	C731.636963,809.324890 730.173401,818.964111 722.965393,826.466736 
	C720.029541,829.522705 717.726501,833.226501 714.055847,835.276489 
	C713.038147,835.017883 712.019104,834.758911 711.000000,834.499939 
"/>
<path fill="none" opacity="1.000000" stroke="#000000" stroke-linecap="round" stroke-linejoin="round" stroke-width="2.000000"
	d="
M289.500000,749.500000 
	C289.372131,758.544983 286.557037,766.874939 281.910828,774.445251 
	C277.979553,780.850769 276.639862,787.928406 274.973145,794.993652 
	C274.843842,795.541809 274.333374,796.000000 274.000031,796.500000 
"/>
<path fill="none" opacity="1.000000" stroke="#000000" stroke-linecap="round" stroke-linejoin="round" stroke-width="3.000000"
	d="
M273.500000,797.500000 
	C274.728577,802.790466 275.549042,808.167297 276.642090,813.470703 
	C277.844269,819.303833 282.249786,823.658447 285.551178,828.464844 
	C286.732056,830.184021 288.447571,831.557190 290.009460,832.989685 
	C295.606140,838.123230 295.460327,842.920227 289.500000,848.000000 
"/>
<path fill="none" opacity="1.000000" stroke="#000000" stroke-linecap="round" stroke-linejoin="round" stroke-width="2.000000"
	d="
M443.500000,996.500000 
	C443.160492,1004.504333 445.074066,1012.229492 446.570282,1019.986450 
	C447.091431,1022.688416 448.026947,1025.258789 447.000000,1028.000000 
"/>
<path fill="none" opacity="1.000000" stroke="#000000" stroke-linecap="round" stroke-linejoin="round" stroke-width="2.000000"
	d="
M600.500000,996.500000 
	C599.967651,1004.425232 603.278687,1011.761780 604.037903,1019.496277 
	C604.306030,1022.228149 605.482239,1024.946777 603.500000,1027.500000 
"/>
<path fill="none" opacity="1.000000" stroke="#000000" stroke-linecap="round" stroke-linejoin="round" stroke-width="2.000000"
	d="
M403.000000,997.000000 
	C402.139404,1004.419312 400.625824,1011.714417 399.170532,1019.033875 
	C398.650787,1021.647949 397.680939,1025.075928 400.500000,1027.500000 
"/>
<path fill="none" opacity="1.000000" stroke="#000000" stroke-linecap="round" stroke-linejoin="round" stroke-width="2.000000"
	d="
M559.500000,999.500000 
	C560.026611,1007.203552 558.154175,1014.596619 556.445740,1021.987488 
	C555.882385,1024.424805 555.792603,1026.544678 557.500000,1028.500000 
"/>
<path fill="none" opacity="1.000000" stroke="#000000" stroke-linecap="round" stroke-linejoin="round" stroke-width="2.000000"
	d="
M568.500000,284.500000 
	C559.240479,287.738617 549.941345,290.891388 544.942200,300.469818 
	C544.559937,301.202179 544.600708,301.816833 544.500000,302.500000 
"/>
<path fill="none" opacity="1.000000" stroke="#000000" stroke-linecap="round" stroke-linejoin="round" stroke-width="2.000000"
	d="
M462.500000,299.500000 
	C457.450256,290.487366 448.563354,287.358429 439.500000,284.500000 
"/>
<path fill="none" opacity="1.000000" stroke="#000000" stroke-linecap="round" stroke-linejoin="round" stroke-width="2.000000"
	d="
M617.000000,607.500000 
	C615.061584,607.819763 613.879639,606.375610 612.515015,605.477234 
	C607.329895,602.063721 601.605774,600.255798 595.500000,599.500000 
"/>
<path fill="none" opacity="1.000000" stroke="#000000" stroke-linecap="round" stroke-linejoin="round" stroke-width="2.000000"
	d="
M408.500000,600.500000 
	C403.259583,600.215027 398.987885,602.971130 394.513794,605.029968 
	C392.624542,605.899414 391.455322,608.140320 389.000000,608.000000 
"/>
<path fill="none" opacity="1.000000" stroke="#000000" stroke-linecap="round" stroke-linejoin="round" stroke-width="2.000000"
	d="
M709.500000,521.500000 
	C712.292297,525.644165 710.359253,530.151855 710.500000,534.500000 
"/>
<path fill="none" opacity="1.000000" stroke="#000000" stroke-linecap="round" stroke-linejoin="round" stroke-width="2.000000"
	d="
M514.500000,620.500000 
	C511.835388,624.526611 508.787048,628.376099 508.500000,633.500000 
"/>
<path fill="none" opacity="1.000000" stroke="#000000" stroke-linecap="round" stroke-linejoin="round" stroke-width="3.000000"
	d="
M714.000000,836.000000 
	C715.235352,836.833313 714.218384,837.734619 713.966736,838.488892 
	C712.408875,843.157471 714.921875,845.817688 718.500000,848.000000 
"/>
<path fill="none" opacity="1.000000" stroke="#000000" stroke-linecap="round" stroke-linejoin="round" stroke-width="2.000000"
	d="
M323.500000,527.500000 
	C320.885315,531.868591 317.037964,534.347107 312.000000,535.000000 
"/>
<path fill="none" opacity="1.000000" stroke="#000000" stroke-linecap="round" stroke-linejoin="round" stroke-width="2.000000"
	d="
M685.500000,530.500000 
	C688.359253,533.973694 692.174866,535.109619 696.500000,535.000000 
"/>
<path fill="none" opacity="1.000000" stroke="#000000" stroke-linecap="round" stroke-linejoin="round" stroke-width="3.000000"
	d="
M301.000000,777.000000 
	C299.704041,778.985168 297.119293,778.607605 295.500000,780.000000 
"/>
</svg>