<svg version="1.1" id="Layer_1" xmlns="http://www.w3.org/2000/svg" xmlns:xlink="http://www.w3.org/1999/xlink" x="0px" y="0px"
	 width="100%" viewBox="0 0 1024 1536" enable-background="new 0 0 1024 1536" xml:space="preserve">
<path fill="none" opacity="1.000000" stroke="#000000" stroke-linecap="round" stroke-linejoin="round" stroke-width="5.000000"
	d="
M617.250000,618.000000 
	C623.013611,632.297852 627.493652,647.015442 630.928345,662.016418 
	C633.619080,673.767883 635.975708,685.616699 637.900574,697.516052 
	C639.397461,706.769043 639.846558,716.186218 641.033142,725.495789 
	C643.234497,742.766479 643.948303,760.143555 644.365784,777.503235 
	C644.698181,791.320557 644.054993,805.176819 643.423462,818.996521 
	C642.988525,828.514709 642.157959,838.043091 640.904663,847.487366 
	C639.752197,856.172363 638.536255,864.863220 637.186401,873.529053 
	C635.699219,883.076599 633.949951,892.546021 632.030884,902.006287 
	C629.071350,916.595398 625.690918,931.076050 622.177490,945.543091 
	C620.053040,954.291077 619.136292,963.397400 618.982971,972.499695 
	C618.766968,985.332703 619.050842,998.162964 618.679932,1011.005188 
	C618.404480,1020.543701 619.980530,1030.049927 621.716003,1039.551880 
	C623.152649,1047.417236 624.492493,1055.412720 625.172729,1063.485474 
	C625.889526,1071.992310 626.623657,1080.500732 626.402161,1088.997437 
	C626.017517,1103.751343 624.692505,1118.402466 622.173950,1133.029907 
	C618.213928,1156.028809 612.637085,1178.661499 608.068848,1201.513794 
	C604.717773,1218.276978 601.638794,1235.113403 599.145630,1252.021484 
	C597.810120,1261.078125 596.701660,1270.241211 596.884094,1279.502319 
	C596.957825,1283.242554 597.245056,1287.104370 598.229553,1290.432129 
	C600.477295,1298.029663 600.483948,1305.398315 599.037537,1313.007080 
	C598.307434,1316.847900 599.419861,1320.561523 601.036804,1323.982544 
	C608.138062,1339.007080 617.247559,1352.634277 628.942505,1364.556396 
	C634.537354,1370.259888 638.633362,1376.951416 637.977112,1385.498291 
	C637.900330,1386.498047 638.061646,1387.434448 637.578552,1388.534546 
	C634.541138,1395.450928 623.752930,1401.548706 616.000000,1400.500000 
"/>
<path fill="none" opacity="1.000000" stroke="#000000" stroke-linecap="round" stroke-linejoin="round" stroke-width="5.000000"
	d="
M391.000000,449.500000 
	C394.697632,451.381226 393.330200,455.392944 393.722198,458.041138 
	C395.891449,472.694214 399.998322,486.891754 404.248840,500.924622 
	C409.646362,518.744324 411.643341,536.673096 409.843323,554.984619 
	C408.940277,564.171509 407.708893,573.373718 406.154999,582.526306 
	C404.395721,592.888306 404.356476,603.532349 405.250275,613.978577 
	C405.639679,618.529175 403.604553,621.804077 402.383270,625.460999 
	C397.159698,641.102356 392.334045,656.885681 389.174561,673.034180 
	C386.495636,686.726135 384.450623,700.568359 382.868378,714.485046 
	C379.881378,740.757812 377.673889,767.056519 378.080658,793.498779 
	C378.304169,808.028137 379.345062,822.528992 380.830566,837.017395 
	C381.821869,846.685730 382.688171,856.392944 384.128784,865.980652 
	C386.668518,882.883118 389.709503,899.725403 393.095886,916.480591 
	C395.608490,928.912415 399.335266,941.100098 401.805573,953.538635 
	C402.596588,957.521423 403.285950,961.724976 403.083496,966.003967 
	C402.373413,981.012207 403.518036,996.004456 404.032532,1010.998901 
	C404.399445,1021.693665 402.311951,1032.079590 400.474579,1042.495483 
	C396.822266,1063.199951 395.053680,1083.886963 396.797180,1105.016724 
	C398.744568,1128.617554 403.699707,1151.547485 408.935425,1174.514771 
	C412.603455,1190.605103 416.221558,1206.744873 418.817047,1223.029175 
	C420.747162,1235.138916 423.124786,1247.203003 424.149750,1259.487549 
	C424.790955,1267.172974 425.568268,1274.779053 425.055695,1282.503662 
	C424.783813,1286.601074 424.106628,1290.583740 422.980072,1294.494263 
	C421.245239,1300.516113 421.465576,1306.724365 423.240448,1312.425171 
	C424.533966,1316.579834 423.346649,1319.880615 421.873749,1322.939209 
	C415.208069,1336.782104 407.755493,1350.103638 396.595184,1361.096680 
	C390.901489,1366.704956 386.003571,1373.092285 384.343079,1381.468872 
	C383.754425,1384.438477 383.798615,1387.822632 385.191772,1389.321777 
	C390.190735,1394.701294 395.403839,1400.254395 403.498383,1401.016968 
	C405.025269,1401.161011 406.529266,1400.594116 408.052704,1401.940308 
	C412.501129,1405.871704 417.444702,1405.885254 422.500000,1403.000000 
"/>
<path fill="none" opacity="1.000000" stroke="#000000" stroke-linecap="round" stroke-linejoin="round" stroke-width="5.000000"
	d="
M565.000000,182.500000 
	C567.097778,186.861160 564.511292,190.976227 563.732544,194.947556 
	C562.644653,200.496216 560.996338,206.194931 557.511719,211.008484 
	C554.667725,214.937149 557.020691,219.355392 556.716919,223.515839 
	C556.136780,231.461304 556.759888,239.502441 557.026062,247.499130 
	C557.201233,252.763458 560.214783,256.295319 564.492737,259.011444 
	C577.187805,267.071808 591.148804,272.399902 604.982605,278.042694 
	C613.800598,281.639587 622.577698,285.449280 632.014526,286.905945 
	C641.736633,288.406616 651.215393,290.667023 659.962769,295.073883 
	C675.122925,302.711487 685.503418,314.862915 692.024475,330.489807 
	C699.455750,348.298157 701.671387,366.928375 700.933594,385.997437 
	C700.687805,392.347046 699.590637,398.659790 699.018066,405.001617 
	C698.183411,414.245636 700.919800,423.050201 702.477173,432.003967 
	C703.862488,439.969025 705.449097,447.906586 706.011475,455.999207 
	C706.799255,467.335724 708.032532,478.654266 708.417236,490.002808 
	C709.049377,508.649780 716.312561,525.394043 722.450806,542.517639 
	C725.863708,552.038452 727.661316,561.942139 729.150024,571.977722 
	C730.954346,584.141235 730.531311,596.318848 731.098877,608.495422 
	C732.108765,630.161743 732.322754,651.857239 733.835754,673.511475 
	C734.380493,681.307861 734.585632,689.175354 735.064453,696.996033 
	C735.832825,709.545349 736.269653,722.109558 738.874878,734.526245 
	C740.840393,743.893616 741.090210,753.626221 743.136353,762.970154 
	C746.139771,776.685913 741.235535,788.936768 737.505127,801.501526 
	C735.973877,806.658875 734.705505,811.905762 732.919617,816.971680 
	C731.914490,819.823120 730.845215,822.742126 728.527527,825.027893 
	C721.312805,832.143005 713.734192,838.777588 705.005066,844.008484 
	C702.787903,845.337097 700.792664,847.367798 697.982788,845.020630 
	C695.017944,842.544006 695.715393,839.497986 696.544739,836.512451 
	C697.169067,834.265137 698.853821,832.625977 700.484253,830.984375 
	C703.903198,827.542236 707.010742,823.829590 710.152222,820.129211 
	C715.020752,814.394409 715.895142,807.906555 715.974121,800.999695 
	C716.039124,795.318542 716.411194,789.605896 715.005371,783.998657 
	C714.227051,780.894043 713.587891,777.719177 710.000000,776.500000 
"/>
<path fill="none" opacity="1.000000" stroke="#000000" stroke-linecap="round" stroke-linejoin="round" stroke-width="5.000000"
	d="
M457.500000,184.500000 
	C459.138733,194.035904 460.679901,203.556351 465.931458,212.042419 
	C468.206573,215.718735 465.952576,219.975952 466.276306,224.017914 
	C466.885376,231.622452 466.389191,239.347092 465.915955,246.994797 
	C465.635132,251.532990 463.620483,255.248276 459.552521,258.075562 
	C446.885559,266.879181 432.485138,271.995941 418.487518,277.970734 
	C410.042938,281.575226 401.458160,285.234314 392.461029,286.771973 
	C384.227814,288.179138 376.298370,290.077454 368.481750,292.950348 
	C350.307251,299.630219 338.728973,312.905518 331.054047,330.024231 
	C327.061707,338.928894 324.387695,348.433502 323.208954,358.025665 
	C321.788666,369.583832 321.150635,381.257324 322.858185,393.020599 
	C324.703278,405.731323 323.707825,418.434113 320.613007,431.027771 
	C318.689148,438.856537 317.564911,446.900024 316.964050,454.997345 
	C315.751373,471.339630 314.738983,487.713684 312.852905,503.982941 
	C311.658142,514.289001 307.380127,523.887756 303.527100,533.510864 
	C298.306580,546.549438 295.046326,560.136169 293.060059,574.008606 
	C292.351868,578.954956 292.158844,583.995605 292.031982,589.000793 
	C291.613739,605.498657 291.673370,622.015991 290.897308,638.495178 
	C290.222260,652.828430 289.350128,667.146179 288.882507,681.496155 
	C288.420288,695.680359 287.455505,709.884949 285.856842,723.983765 
	C284.562683,735.397095 281.690002,746.623108 280.088501,758.012451 
	C278.534363,769.064941 277.416016,780.087219 281.850708,791.060303 
	C284.957550,798.747742 286.562408,807.032288 289.025726,814.992065 
	C292.294678,825.554871 300.921539,831.580872 309.025848,837.967224 
	C312.032684,840.336670 315.276123,842.424377 318.522491,844.464233 
	C320.333069,845.601868 322.388458,846.797546 324.487244,844.985229 
	C326.812592,842.977173 327.717102,840.615112 326.551239,837.480957 
	C325.453857,834.531067 323.786224,832.079468 321.496277,830.004089 
	C317.529572,826.409363 314.246643,822.227722 310.979889,818.015625 
	C308.556335,814.890625 307.459961,811.268005 307.049164,807.494629 
	C306.175476,799.468628 305.726715,791.454041 307.896881,783.471985 
	C308.462433,781.391785 309.114594,778.951904 310.584900,778.157043 
	C314.962830,775.790100 312.920685,773.233887 311.500000,770.500000 
"/>
<path fill="none" opacity="1.000000" stroke="#000000" stroke-linecap="round" stroke-linejoin="round" stroke-width="5.000000"
	d="
M518.500000,761.000000 
	C519.700989,765.715515 518.177734,770.346130 518.111084,775.001587 
	C517.924866,787.997437 517.435486,801.024780 518.546204,813.996033 
	C519.938538,830.257202 522.008362,846.445679 525.012085,862.497742 
	C526.947937,872.843079 529.296509,883.120911 530.901184,893.515259 
	C532.072754,901.104004 532.576782,908.821472 532.950317,916.502441 
	C533.776672,933.494629 533.810242,950.541077 535.140381,967.488953 
	C536.604370,986.141785 540.254272,1004.490906 545.460938,1022.511292 
	C548.042603,1031.446411 547.495667,1040.448730 545.564636,1049.513794 
	C543.447327,1059.453247 541.871582,1069.507202 539.989868,1079.498047 
	C537.872986,1090.737305 537.031189,1102.088013 536.419861,1113.495728 
	C535.877136,1123.622314 537.063599,1133.570068 538.555420,1143.491699 
	C540.487793,1156.343140 544.687012,1168.747314 546.849304,1181.525513 
	C549.193787,1195.380127 550.867737,1209.414185 550.920471,1223.500244 
	C550.985962,1241.000244 551.935791,1258.547974 549.907593,1275.989258 
	C549.143921,1282.555542 547.827148,1289.154907 545.851868,1295.453491 
	C544.109680,1301.008911 544.962158,1306.380737 546.192383,1311.453369 
	C548.428650,1320.674805 546.863525,1329.492188 545.572144,1338.510376 
	C544.436218,1346.442749 541.305359,1354.221436 543.915833,1362.526489 
	C545.321106,1366.997681 547.296875,1370.584595 551.466919,1373.055908 
	C557.128784,1376.411377 560.322510,1381.145630 562.323792,1387.904175 
	C565.620667,1399.037842 574.355835,1408.526245 590.005371,1407.057373 
	C592.256104,1406.846069 594.496887,1406.295898 595.900452,1404.899902 
	C598.099121,1402.712891 600.562622,1403.408081 602.448425,1404.134033 
	C607.394714,1406.037476 611.916016,1405.403198 614.848450,1401.389282 
	C617.894836,1397.219360 615.609314,1393.025879 612.500000,1389.500000 
"/>
<path fill="none" opacity="1.000000" stroke="#000000" stroke-linecap="round" stroke-linejoin="round" stroke-width="5.000000"
	d="
M473.500000,1038.500000 
	C475.418091,1037.192017 475.852112,1038.887085 475.949219,1040.004395 
	C477.196625,1054.355835 480.898956,1068.293945 483.211212,1082.465576 
	C485.684875,1097.626099 486.346069,1112.771240 485.910278,1127.997437 
	C485.565399,1140.047974 482.791046,1151.824707 479.909668,1163.477661 
	C477.214264,1174.378784 475.248566,1185.331787 473.876007,1196.484741 
	C471.726624,1213.949951 470.696228,1231.480957 471.195679,1248.994385 
	C471.631317,1264.270386 471.408081,1279.714966 476.813416,1294.567871 
	C479.119385,1300.904297 477.445282,1307.980347 475.872833,1314.469238 
	C474.129578,1321.662720 475.418396,1328.514893 476.485962,1335.502197 
	C477.726959,1343.624146 480.191406,1351.535645 479.141083,1360.017456 
	C478.434784,1365.721313 476.160339,1370.007202 471.476044,1372.962036 
	C465.776581,1376.557129 462.209991,1381.137939 460.258850,1387.930786 
	C457.791809,1396.519653 452.232697,1403.258057 443.006348,1406.021118 
	C435.703033,1408.208374 429.015228,1407.389038 423.525543,1402.927002 
	C421.960602,1395.730347 423.439545,1390.219727 430.500000,1387.500000 
"/>
<path fill="none" opacity="1.000000" stroke="#000000" stroke-linecap="round" stroke-linejoin="round" stroke-width="5.000000"
	d="
M381.500000,382.500000 
	C382.015991,392.051117 384.942261,400.936371 389.009552,409.495453 
	C390.529968,412.694916 391.221985,415.645721 390.757690,419.530792 
	C389.753906,427.930756 390.100403,436.500031 390.104279,444.999939 
	C390.104675,445.833649 390.631195,446.570953 390.024048,447.515442 
	C385.921143,453.898193 385.580261,461.455109 384.167877,468.533508 
	C380.362549,487.603973 374.060791,506.013947 369.807404,524.956726 
	C369.427277,526.649658 369.055695,528.324341 369.039429,530.000366 
	C368.927521,541.508240 369.506195,553.054871 367.947357,564.492798 
	C366.262482,576.855408 363.700043,589.096375 359.920258,600.974609 
	C352.847443,623.201660 343.332001,644.543640 335.538879,666.513794 
	C330.272034,681.361877 325.952026,696.525269 323.119293,712.021790 
	C321.734314,719.598206 322.598053,727.026672 326.867279,734.080322 
	C331.054932,740.999329 332.927155,748.972412 333.955475,757.005676 
	C334.661987,762.524902 333.028931,767.963562 332.830627,773.493896 
	C332.529083,781.901794 334.106415,790.138550 334.221252,798.496948 
	C334.260468,801.349426 334.286682,804.234863 333.894379,806.984924 
	C333.208374,811.794312 327.754242,813.552429 323.994843,810.506348 
	C320.165710,807.403870 318.711853,803.120239 318.018402,798.497253 
	C317.270294,793.509460 316.608398,788.506775 316.025116,783.497070 
	C315.743591,781.079102 314.942383,778.932434 313.500000,777.000000 
"/>
<path fill="none" opacity="1.000000" stroke="#000000" stroke-linecap="round" stroke-linejoin="round" stroke-width="5.000000"
	d="
M503.500000,761.000000 
	C503.883728,776.497681 505.585999,791.898193 504.286041,807.523804 
	C503.287689,819.524170 502.193848,831.529724 500.855011,843.483765 
	C499.726196,853.562683 497.288879,863.492126 495.512634,873.502258 
	C493.774445,883.297791 491.870544,893.047058 490.895355,902.989746 
	C489.539795,916.810608 489.503174,930.659729 488.817566,944.490967 
	C488.046722,960.041321 487.040161,975.600952 484.197632,991.036377 
	C482.020386,1002.859009 478.943573,1014.393738 476.107849,1026.026245 
	C475.173401,1029.859497 475.499969,1034.000000 475.249969,1038.000000 
"/>
<path fill="none" opacity="1.000000" stroke="#000000" stroke-linecap="round" stroke-linejoin="round" stroke-width="5.000000"
	d="
M631.250000,417.000000 
	C632.239136,418.555786 632.134827,420.312134 631.973938,421.997498 
	C631.321045,428.836853 633.160645,435.640472 632.069153,442.510986 
	C631.518066,445.979706 634.339172,448.749451 634.967957,452.006195 
	C638.082092,468.135315 641.829346,484.118652 646.034912,499.990753 
	C648.375000,508.822449 651.470703,517.437439 653.215393,526.458374 
	C653.536255,528.117554 653.939392,529.823608 653.961365,531.500488 
	C654.111816,543.007019 653.324036,554.564575 655.057190,565.991333 
	C656.902161,578.156006 659.137939,590.338745 663.137390,601.952698 
	C669.454529,620.297119 676.651978,638.338867 683.504089,656.498474 
	C690.567383,675.218140 696.246887,694.359985 699.831604,714.030701 
	C700.857544,719.660461 700.351562,725.412415 697.199768,731.110474 
	C691.884399,740.719849 688.451782,751.170105 688.974548,762.501160 
	C689.144714,766.189941 690.133972,769.740784 690.101990,773.500854 
	C690.028992,782.070007 689.448120,790.558105 688.034607,799.005798 
	C687.790466,800.464966 687.762878,802.046570 688.046509,803.490845 
	C688.766357,807.156555 689.433350,811.060791 694.006409,811.967590 
	C697.262024,812.613159 701.206055,809.166565 703.061584,805.027588 
	C704.869080,800.995667 705.885193,796.507996 705.718018,792.511780 
	C705.398438,784.873230 708.885803,778.475525 710.500000,771.500000 
"/>
<path fill="none" opacity="1.000000" stroke="#000000" stroke-linecap="round" stroke-linejoin="round" stroke-width="5.000000"
	d="
M571.500000,146.500000 
	C573.680054,142.602676 574.019653,138.425568 574.112000,134.002335 
	C574.261780,126.826988 574.973877,119.728470 574.117981,112.486061 
	C572.702576,100.508888 568.815735,89.795181 561.025879,80.478371 
	C551.659119,69.275558 539.375183,62.655972 525.464966,60.198139 
	C498.950958,55.513317 466.434021,64.272942 453.155548,95.566002 
	C450.472321,101.889450 448.896698,108.868271 448.977325,116.000259 
	C449.073456,124.499168 448.966187,133.000397 449.064819,141.499252 
	C449.072632,142.171616 450.000000,142.833328 450.500000,143.499985 
"/>
<path fill="none" opacity="1.000000" stroke="#000000" stroke-linecap="round" stroke-linejoin="round" stroke-width="5.000000"
	d="
M632.000000,448.000000 
	C628.393188,451.633789 628.946716,456.722321 628.223572,461.037476 
	C625.605286,476.662109 620.711243,491.683563 616.861450,506.965088 
	C613.110596,521.854187 611.200134,536.601501 612.775452,552.022949 
	C613.796448,562.018311 615.010925,572.004944 616.140991,581.984009 
	C617.084778,590.318054 617.996643,598.599304 618.102600,606.998718 
	C618.146057,610.439575 616.570007,613.590332 617.000000,617.000000 
"/>
<path fill="none" opacity="1.000000" stroke="#000000" stroke-linecap="round" stroke-linejoin="round" stroke-width="4.000000"
	d="
M467.500000,215.500000 
	C473.954651,219.965179 479.223572,225.790924 484.918427,231.087692 
	C498.094330,243.342545 517.905579,244.439178 530.499573,236.499329 
	C536.556458,232.680786 541.757629,227.822571 547.025146,223.027634 
	C549.817322,220.485931 551.806213,217.024796 555.500000,215.500000 
"/>
<path fill="none" opacity="1.000000" stroke="#000000" stroke-linecap="round" stroke-linejoin="round" stroke-width="3.000000"
	d="
M458.500000,440.500000 
	C451.494873,440.451874 444.612061,441.752411 437.486084,441.170563 
	C420.460114,439.780334 405.965576,434.095856 395.464081,420.026794 
	C394.496063,418.729950 393.779907,417.053406 392.000000,416.500000 
"/>
<path fill="none" opacity="1.000000" stroke="#000000" stroke-linecap="round" stroke-linejoin="round" stroke-width="3.000000"
	d="
M641.500000,382.500000 
	C640.870178,392.259216 637.346985,401.188721 633.480042,409.991241 
	C628.273132,421.844330 619.391968,430.577454 607.905823,435.792511 
	C596.505920,440.968384 584.175476,442.962250 571.488525,440.560577 
	C569.235962,440.134155 566.833313,440.500000 564.500000,440.500000 
"/>
<path fill="none" opacity="1.000000" stroke="#000000" stroke-linecap="round" stroke-linejoin="round" stroke-width="5.000000"
	d="
M448.500000,141.500000 
	C444.010315,140.800873 442.080444,142.480392 440.914642,146.475082 
	C438.494659,154.767166 441.491028,162.324951 443.586548,169.976303 
	C444.582886,173.614243 446.426880,177.033676 448.019623,180.490952 
	C449.764008,184.277390 452.457275,186.691132 457.000000,186.000000 
"/>
<path fill="none" opacity="1.000000" stroke="#000000" stroke-linecap="round" stroke-linejoin="round" stroke-width="5.000000"
	d="
M566.500000,186.000000 
	C571.580322,186.630234 574.155823,183.230179 575.926086,179.465240 
	C580.223816,170.324768 583.115112,160.739594 582.974487,150.500351 
	C582.884155,143.925156 580.732300,141.644943 574.500000,141.000000 
"/>
<path fill="none" opacity="1.000000" stroke="#000000" stroke-linecap="round" stroke-linejoin="round" stroke-width="3.000000"
	d="
M461.500000,714.500000 
	C470.900848,725.515015 478.827423,737.692444 488.451721,748.542847 
	C491.832825,752.354675 495.655273,755.342712 499.902008,758.148315 
	C504.491913,761.180786 509.198608,760.638367 513.998718,760.464172 
	C525.729980,760.038696 532.002686,751.508606 538.473511,743.478699 
	C545.920776,734.237183 553.166687,724.833313 560.500000,715.500000 
"/>
<path fill="none" opacity="1.000000" stroke="#000000" stroke-linecap="round" stroke-linejoin="round" stroke-width="2.000000"
	d="
M415.500000,990.500000 
	C415.951172,997.470520 416.956390,1004.274841 420.468506,1010.517700 
	C422.763519,1014.597229 426.055298,1017.222534 430.500000,1018.500000 
"/>
<path fill="none" opacity="1.000000" stroke="#000000" stroke-linecap="round" stroke-linejoin="round" stroke-width="2.000000"
	d="
M466.500000,993.500000 
	C465.690399,1003.870728 462.183197,1012.671021 452.532654,1018.058533 
	C451.437439,1018.669922 450.486938,1018.254944 449.500000,1018.500000 
"/>
<path fill="none" opacity="1.000000" stroke="#000000" stroke-linecap="round" stroke-linejoin="round" stroke-width="2.000000"
	d="
M606.500000,993.500000 
	C606.437744,1002.588867 604.577209,1010.929260 596.469971,1016.455994 
	C595.019348,1017.444946 593.484131,1018.626953 591.500000,1018.500000 
"/>
<path fill="none" opacity="1.000000" stroke="#000000" stroke-linecap="round" stroke-linejoin="round" stroke-width="2.000000"
	d="
M556.500000,994.500000 
	C557.509399,1008.455688 564.141174,1017.045105 572.500000,1018.500000 
"/>
<path fill="none" opacity="1.000000" stroke="#000000" stroke-linecap="round" stroke-linejoin="round" stroke-width="4.000000"
	d="
M511.500000,591.500000 
	C511.500000,596.833313 511.500000,602.166687 511.500000,607.500000 
"/>
<path fill="none" opacity="1.000000" stroke="#000000" stroke-linecap="round" stroke-linejoin="round" stroke-width="2.000000"
	d="
M412.500000,1386.500000 
	C408.670135,1390.382446 405.586761,1394.584839 406.500000,1400.500000 
"/>
<path fill="none" opacity="1.000000" stroke="#000000" stroke-linecap="round" stroke-linejoin="round" stroke-width="2.000000"
	d="
M597.500000,1391.500000 
	C600.812622,1394.966431 599.600586,1399.023071 599.000000,1403.000000 
"/>
<path fill="none" opacity="1.000000" stroke="#000000" stroke-linecap="round" stroke-linejoin="round" stroke-width="2.000000"
	d="
M406.000000,618.000000 
	C408.720306,618.844666 408.987152,621.250610 409.500000,623.500000 
"/>
<path fill="none" opacity="1.000000" stroke="#000000" stroke-linecap="round" stroke-linejoin="round" stroke-width="2.000000"
	d="
M395.499969,1388.500000 
	C394.666626,1390.666626 393.833282,1392.833374 392.999969,1395.000000 
"/>
<path fill="none" opacity="1.000000" stroke="#000000" stroke-linecap="round" stroke-linejoin="round" stroke-width="2.000000"
	d="
M625.500000,1387.500000 
	C626.333374,1389.500000 627.166687,1391.500000 628.000000,1393.500000 
"/>
<path fill="none" opacity="1.000000" stroke="#000000" stroke-linecap="round" stroke-linejoin="round" stroke-width="2.000000"
	d="
M549.000000,1039.000000 
	C551.171509,1039.450317 550.331482,1041.191284 550.500000,1042.500000 
"/>
</svg>