<svg version="1.1" id="Layer_1" xmlns="http://www.w3.org/2000/svg" xmlns:xlink="http://www.w3.org/1999/xlink" x="0px" y="0px"
	 width="100%" viewBox="0 0 480 1024" enable-background="new 0 0 480 1024" xml:space="preserve">
<path fill="#000000" opacity="1.000000" stroke="none" 
	d="
M287.004913,530.111694 
	C287.592651,556.387939 283.582001,581.685791 278.802155,606.898315 
	C275.334137,625.191528 275.406769,643.172546 282.199371,660.900269 
	C285.707001,670.054749 288.298187,679.565491 291.184814,688.951721 
	C297.311340,708.872925 297.425873,728.904663 292.144989,749.025574 
	C287.637207,766.200806 287.384613,783.939880 285.384613,801.442200 
	C284.365173,810.363403 284.170685,819.375793 283.351929,828.323914 
	C282.108459,841.913757 284.875305,854.723999 290.045258,867.214844 
	C292.576202,873.329651 292.659302,879.899719 292.273224,886.422668 
	C291.813812,894.183533 287.897583,898.538025 280.314789,900.361450 
	C273.477844,902.005493 266.660431,901.106445 259.953949,900.071167 
	C249.524750,898.461060 239.347488,899.942017 229.184387,901.695801 
	C218.983795,903.456055 208.970444,904.534546 198.464813,903.235901 
	C191.337799,902.354919 183.983765,902.500671 176.789413,901.303284 
	C171.284637,900.387024 166.260071,898.519348 162.164902,894.568848 
	C159.413406,891.914429 158.230072,888.758423 159.468246,885.065125 
	C160.626099,881.611450 163.681152,881.269043 166.778915,880.981628 
	C177.480484,879.988953 187.697235,877.320068 197.144409,872.023499 
	C206.444077,866.809753 215.645447,861.397522 225.137665,856.558289 
	C231.924164,853.098511 235.489502,847.718445 237.722504,840.703979 
	C241.953842,827.412231 242.090668,813.859985 241.359848,800.157837 
	C240.088470,776.320740 234.362289,753.128784 231.281876,729.554688 
	C229.660889,717.149536 230.173935,704.612610 228.777634,692.200012 
	C227.908279,684.471741 226.046646,677.180176 223.339737,669.707031 
	C219.288086,658.521423 213.607635,647.290527 214.735153,634.755493 
	C215.874008,622.094421 212.334290,610.407349 208.291443,598.697205 
	C199.846649,574.236877 193.792831,549.170349 190.999268,523.436401 
	C188.724075,502.477814 189.726685,481.493469 193.323608,460.746033 
	C195.870972,446.052643 195.883713,431.864014 191.134857,417.460663 
	C185.946564,401.724396 185.877167,385.364410 188.435104,369.044861 
	C189.543869,361.970978 187.858673,355.130341 187.188599,348.196350 
	C185.797668,333.802887 184.039902,319.427734 183.252762,305.000336 
	C182.857956,297.764099 183.741638,290.379486 185.124023,283.166656 
	C185.408401,281.682861 185.817551,280.250336 185.096954,278.780731 
	C178.448044,265.221039 181.627075,252.178940 187.298325,239.328781 
	C192.159103,228.315079 198.396851,218.054077 205.291321,208.228943 
	C210.928757,200.195221 215.896347,191.715973 222.167313,184.084534 
	C226.041061,179.370407 225.305893,173.347122 223.883041,167.775421 
	C222.608490,162.784515 220.734741,157.973831 220.551651,152.711990 
	C220.430222,149.222183 218.259872,147.792068 214.786667,148.179688 
	C211.317795,148.566833 207.824463,149.163757 204.359085,149.064865 
	C196.893967,148.851868 193.225052,145.113739 193.796600,137.706314 
	C194.187759,132.636536 191.235092,128.555222 190.893890,123.802917 
	C190.812302,122.666565 190.077362,121.413574 190.378891,120.442841 
	C191.432053,117.052475 189.890488,115.703667 186.935760,114.550148 
	C182.786606,112.930344 181.696335,109.690910 183.490921,105.605743 
	C184.158432,104.086220 184.973328,102.624786 185.804092,101.184792 
	C189.414215,94.927208 192.237823,89.072479 192.434662,81.012184 
	C193.055756,55.580669 213.761780,36.175182 239.374496,34.612164 
	C248.430344,34.059532 257.332825,34.143681 266.089020,36.717365 
	C283.333710,41.786068 295.310425,57.091202 297.462799,74.989250 
	C299.548279,92.331566 295.171509,107.237381 283.608002,120.194031 
	C280.863983,123.268623 279.446808,126.962555 279.199280,131.107559 
	C278.323822,145.766647 280.558929,159.219315 289.965454,171.518265 
	C309.943085,197.638840 313.373077,227.789810 308.872467,259.357056 
	C305.382690,283.834259 296.446594,306.983673 290.993073,330.985840 
	C286.660461,350.054596 283.765289,369.258148 286.235138,388.919739 
	C286.638611,392.131500 287.342865,395.065338 288.942322,397.889313 
	C294.462189,407.635010 298.812042,417.887482 301.904510,428.664917 
	C308.141754,450.402344 304.751404,470.607117 291.735962,489.000610 
	C287.872925,494.459930 285.904602,500.046509 286.238800,506.659790 
	C286.625305,514.308533 286.758545,521.970093 287.004913,530.111694 
M240.569733,136.035065 
	C235.371964,140.925171 228.287186,142.185623 222.936142,144.597687 
	C224.372513,155.213181 228.312012,164.518997 228.663315,174.513214 
	C228.819183,178.947632 228.373199,183.789993 225.066559,187.217300 
	C221.654373,190.754013 219.312515,194.942978 216.596649,198.911987 
	C207.941315,211.561020 199.099350,224.109772 192.475342,237.998428 
	C187.404449,248.630630 182.462677,259.762695 186.828033,271.545105 
	C189.508362,278.779480 188.761490,285.452179 188.036606,292.497711 
	C187.679459,295.968964 187.335617,299.457306 187.288315,302.942017 
	C187.093689,317.282196 190.972366,331.279144 190.921860,345.627502 
	C190.896759,352.756622 193.855789,359.726776 192.679443,366.910248 
	C189.145264,388.492035 190.958466,407.959229 198.675110,428.603210 
	C200.788422,421.839539 202.405045,414.752777 207.211823,408.640137 
	C208.796341,410.909515 207.445755,412.100830 206.848618,413.313568 
	C204.255249,418.580231 202.633469,424.148346 201.279709,429.835022 
	C199.148621,438.786957 199.368668,448.016174 197.839935,457.047424 
	C192.306534,489.737518 192.819153,522.278259 200.029739,554.742249 
	C204.081497,572.984375 209.996796,590.640625 215.521011,608.432434 
	C217.547195,614.958191 219.437378,621.503967 218.409302,628.482544 
	C216.372269,642.309998 223.126160,654.393738 226.280670,667.174866 
	C227.012589,670.140259 230.121521,672.632629 230.493073,675.551819 
	C231.540863,683.784058 233.105347,691.947449 233.414352,700.307922 
	C233.917511,713.921021 234.473114,727.553101 236.870102,741.031494 
	C241.412720,766.575012 246.451584,792.053101 245.404129,818.245117 
	C245.006439,828.189575 243.147903,837.686646 239.599091,846.954041 
	C237.716476,851.870361 234.655350,855.512695 230.088562,858.067566 
	C220.203384,863.597900 210.369965,869.220703 200.513840,874.803040 
	C190.070465,880.717896 178.689362,883.676880 166.911469,885.247314 
	C162.517242,885.833191 162.719376,887.832825 164.769470,891.467407 
	C169.519791,886.322632 175.157227,884.143311 182.378448,884.245605 
	C179.800583,887.491882 176.233002,886.966248 173.565277,888.389465 
	C169.073257,890.785828 168.358994,891.669617 169.410095,894.823547 
	C177.030640,887.377014 180.392990,885.810608 185.810028,887.625244 
	C182.423370,889.107056 179.369278,890.310852 176.449707,891.781677 
	C175.162979,892.429932 173.813644,893.423096 173.754990,895.116943 
	C173.738937,895.580505 174.412613,896.389526 174.888000,896.492065 
	C176.788803,896.902283 177.430130,895.169800 178.280960,894.062500 
	C181.313736,890.115112 185.151733,888.333374 190.144516,889.200073 
	C187.928268,890.856201 185.491531,892.070068 183.136688,893.426147 
	C181.984482,894.089661 180.903290,895.003662 180.952942,896.535156 
	C180.983612,897.481201 181.690460,898.033691 182.560150,898.201843 
	C184.371353,898.552002 184.672089,896.929749 185.380341,895.892456 
	C187.992645,892.066711 191.557663,890.728027 195.929947,891.335205 
	C193.928085,894.230042 189.186340,893.573120 188.440598,897.760437 
	C190.006241,899.986450 191.982101,899.656067 193.962357,899.164978 
	C195.936508,898.675354 197.876297,898.645752 199.894241,899.020203 
	C206.673218,900.278076 213.512650,900.263245 220.262939,899.044312 
	C235.387817,896.313049 250.492096,894.246948 265.914337,896.563354 
	C269.817841,897.149658 273.920044,896.886169 277.881683,896.503296 
	C284.148712,895.897522 286.438721,893.526794 288.051788,887.339966 
	C288.873505,884.188477 288.726013,881.079285 288.314697,877.928772 
	C287.423889,871.105713 285.327240,864.604980 282.716522,858.292419 
	C280.573242,853.110107 279.774719,847.792419 279.626953,842.229126 
	C279.206024,826.380920 280.266235,810.595154 281.897766,794.872498 
	C283.714813,777.362000 285.082825,759.796997 289.373260,742.581543 
	C293.211182,727.181824 292.872681,711.606079 288.942017,696.117065 
	C286.440460,686.259766 283.383514,676.586304 280.155579,666.960693 
	C278.265717,661.325134 275.166107,655.927673 274.254578,650.163147 
	C271.555115,633.092346 272.449554,615.994385 276.093231,599.083435 
	C282.521210,569.250122 283.957642,539.101013 282.224152,508.704041 
	C281.773071,500.794952 283.268250,493.439484 288.365173,486.661011 
	C296.893829,475.318573 301.101593,462.293427 300.732391,447.910400 
	C300.314606,431.635162 294.653198,416.911285 286.988403,402.964294 
	C283.045990,395.790588 282.021790,388.375427 281.634735,380.519379 
	C280.546265,358.426941 284.997101,337.155365 290.656799,316.014191 
	C296.627594,293.710999 303.995789,271.760254 306.032196,248.507935 
	C308.419342,221.250397 303.200836,196.000580 286.626678,173.968399 
	C279.476318,164.463348 275.912903,154.131210 274.927094,142.684082 
	C274.116302,133.268906 274.529114,124.018982 281.371674,116.319649 
	C290.949585,105.542465 294.629761,92.916298 293.772705,78.512238 
	C292.627167,59.258568 279.443512,43.241646 260.785126,39.599674 
	C252.208893,37.925659 243.632523,38.094177 234.957840,39.289413 
	C212.641342,42.364288 195.352631,62.553310 196.372360,84.984695 
	C196.562607,89.169861 195.816437,92.860840 193.545059,96.359344 
	C191.642532,99.289726 190.115692,102.470200 188.137085,105.343391 
	C185.912506,108.573792 186.530426,110.535522 190.267563,111.536621 
	C193.339905,112.359627 195.541016,113.998283 194.966476,117.483894 
	C194.602249,119.693649 195.500153,121.825943 195.367874,123.689270 
	C195.048996,128.180923 198.945312,131.413345 197.923828,136.098251 
	C196.487900,142.684052 198.758545,144.978683 205.494247,144.983246 
	C214.701553,144.989471 223.127090,142.060959 231.418137,138.356735 
	C237.326843,135.716888 240.936783,131.403854 242.952072,125.361519 
	C243.976837,122.288994 244.190796,118.882217 246.083908,116.188148 
	C247.801041,116.304787 248.776093,117.831123 250.542557,117.267715 
	C255.977478,115.534264 262.963287,103.566978 261.679504,97.927917 
	C260.774536,93.952950 257.206604,92.490234 253.603729,94.506081 
	C252.156433,95.315865 251.313507,97.439339 248.659607,96.820816 
	C249.602859,91.998108 252.863083,90.466232 256.896545,90.361984 
	C261.256989,90.249290 264.603027,93.540817 265.211945,98.143074 
	C266.027191,104.304810 263.065063,109.000443 259.309204,113.473373 
	C256.033661,117.374268 251.093582,118.920502 247.531921,121.822655 
	C244.082642,124.633255 244.372910,131.342484 240.569733,136.035065 
z"/>
<path fill="#000000" opacity="1.000000" stroke="none" 
	d="
M210.431610,539.114868 
	C210.811798,540.058289 211.037766,540.709717 211.439453,541.223938 
	C211.709274,541.569336 212.227859,541.720459 214.082184,542.804260 
	C214.378113,531.582092 210.992676,520.940735 215.384216,510.699493 
	C217.119690,522.230103 214.954239,534.412781 221.137894,545.313232 
	C224.561020,534.339233 219.674683,522.622375 224.555862,511.746521 
	C226.171326,521.482727 224.596115,531.607117 228.139526,541.193970 
	C232.948837,531.509460 228.641052,520.482910 232.925690,510.686096 
	C236.597794,517.709534 233.947662,525.673828 235.995850,532.899475 
	C238.767349,532.646240 238.646667,530.768982 238.686111,529.176147 
	C238.962906,517.997192 240.248169,506.964172 242.774048,496.048828 
	C244.251022,489.666229 244.151031,483.171631 242.895218,476.702637 
	C241.305511,468.513824 243.828949,460.843506 246.403427,453.319092 
	C253.411560,432.836426 262.366241,413.069092 268.936890,392.417816 
	C271.921692,383.036652 274.836517,373.468140 275.139954,363.728302 
	C275.319641,357.960114 277.216187,353.157532 278.781525,348.018555 
	C279.370636,346.084534 279.923553,344.121887 279.618896,342.126892 
	C277.385529,327.503265 280.751495,313.281036 282.997955,299.049652 
	C285.235840,284.872528 286.886322,270.711182 286.701385,256.351990 
	C286.596130,248.177902 290.261475,241.162415 293.440765,233.965622 
	C295.052734,238.020004 294.049194,241.828201 292.914215,245.576706 
	C291.211792,251.199234 290.179565,256.907349 290.390350,262.789642 
	C291.004059,279.915619 287.014862,296.526886 284.850128,313.345276 
	C283.751587,321.880066 281.843475,330.359222 283.219910,339.104248 
	C283.704346,342.182007 283.085571,345.364777 282.585846,348.523346 
	C277.242401,382.295532 266.090454,414.274231 253.076981,445.718140 
	C248.146210,457.632111 244.219696,469.756989 247.109909,483.075012 
	C248.094055,487.609955 247.134720,492.391724 246.123199,496.960083 
	C243.889008,507.050385 242.012360,517.127441 242.042297,527.570557 
	C242.062820,534.730469 239.653214,536.698730 233.813690,536.323120 
	C232.883926,541.869812 227.248672,547.734009 221.775223,548.850769 
	C219.081726,549.400330 208.287949,542.912720 207.638901,540.137146 
	C206.541138,535.442505 205.567535,530.711426 204.773056,525.957031 
	C204.474106,524.168030 204.292267,522.834778 202.131195,522.406067 
	C199.320053,521.848511 198.591171,519.760132 198.883957,517.099182 
	C199.790726,508.858246 200.158661,500.564331 201.674347,492.381683 
	C202.611511,487.322205 205.073013,482.952362 207.660080,478.737671 
	C218.288025,461.422974 221.535034,441.888123 224.640121,422.392670 
	C227.882034,402.038177 227.278534,381.206268 231.724579,360.983307 
	C233.079651,354.819733 234.875656,348.736664 236.792435,342.719543 
	C237.852692,339.391235 237.971756,336.293945 236.995758,332.956238 
	C230.064926,309.254333 229.934631,285.004242 231.487778,260.658539 
	C231.739883,256.706970 231.051926,253.103653 229.865875,249.414902 
	C228.329086,244.635223 226.395615,239.841980 228.244171,234.489624 
	C231.290009,241.172607 234.532898,247.810669 235.205093,255.188431 
	C235.625092,259.798309 235.015274,264.499908 234.898895,269.161133 
	C234.399597,289.158386 234.755219,309.083923 239.852386,328.617950 
	C240.374573,330.619110 240.743256,332.638428 243.940598,331.353577 
	C243.057968,337.665222 240.804245,343.061462 239.023712,348.547699 
	C234.041153,363.900238 232.520996,379.792328 231.298401,395.726593 
	C229.729202,416.178314 227.037979,436.353058 221.202255,456.158142 
	C218.571075,465.087738 215.102676,473.307739 210.256622,481.115784 
	C204.996094,489.591583 203.702469,499.190826 203.215195,508.841614 
	C203.065842,511.799530 201.802933,514.895508 203.466782,517.964783 
	C205.776657,509.736206 203.763290,500.848480 207.455963,492.770172 
	C209.410843,508.058929 205.256149,523.729980 210.431610,539.114868 
z"/>
<path fill="#000000" opacity="1.000000" stroke="none" 
	d="
M216.218658,268.222778 
	C220.727661,263.900696 223.236206,258.467834 226.862381,253.906281 
	C224.236588,269.526123 206.100510,282.207581 194.531036,279.225739 
	C202.346054,276.906372 210.065552,274.406891 216.218658,268.222778 
z"/>
<path fill="#000000" opacity="1.000000" stroke="none" 
	d="
M236.493591,192.529938 
	C233.969620,195.273331 233.658371,199.139084 230.522385,201.376328 
	C230.230453,189.852631 246.802170,175.747070 258.373596,177.945282 
	C249.840378,180.805618 242.099014,184.817520 236.493591,192.529938 
z"/>
<path fill="#000000" opacity="1.000000" stroke="none" 
	d="
M275.203735,854.834717 
	C274.430054,859.729370 273.369720,864.002197 268.559082,866.043518 
	C268.227417,865.479309 267.876892,865.053711 267.943817,864.972656 
	C273.125214,858.693726 272.581879,851.656677 271.142242,844.271912 
	C270.050903,838.673950 270.505798,832.952759 271.799164,827.257629 
	C273.174744,836.313721 273.236572,845.486572 275.203735,854.834717 
z"/>
<path fill="#000000" opacity="1.000000" stroke="none" 
	d="
M231.446182,622.478516 
	C233.104874,623.934509 235.131882,624.613098 235.945847,627.551331 
	C230.635696,625.857788 227.102570,623.083801 222.977280,618.686829 
	C227.212357,618.931458 228.940628,621.143005 231.446182,622.478516 
z"/>
<path fill="#000000" opacity="1.000000" stroke="none" 
	d="
M256.198792,97.357697 
	C253.629593,98.277939 254.076569,101.314796 251.768082,102.444633 
	C250.093979,100.440582 250.884567,98.719658 252.171600,97.137405 
	C253.361404,95.674690 254.961411,94.284981 256.874298,94.940598 
	C259.381592,95.799973 257.890717,96.645973 256.198792,97.357697 
z"/>
</svg>