<svg version="1.1" id="Layer_1" xmlns="http://www.w3.org/2000/svg" xmlns:xlink="http://www.w3.org/1999/xlink" x="0px" y="0px"
	 width="100%" viewBox="0 0 480 1024" enable-background="new 0 0 480 1024" xml:space="preserve">
<path fill="#000000" opacity="1.000000" stroke="none" 
	d="
M315.819794,869.739868 
	C322.554565,870.930420 325.108948,875.907166 321.612213,880.860535 
	C319.198364,884.279907 315.765289,887.165955 311.674072,888.001038 
	C300.866852,890.207031 289.936279,891.217407 278.884521,892.082947 
	C264.549622,893.205566 251.138885,890.204407 237.346802,888.563416 
	C230.233353,887.717102 223.059128,887.758423 215.918365,888.854126 
	C209.628815,889.819153 203.262711,889.673157 196.963257,889.191040 
	C190.100143,888.665710 186.086777,884.753540 184.629959,878.052734 
	C182.426163,867.916077 185.306381,858.357971 189.232132,849.411682 
	C194.432266,837.561035 194.146988,825.362183 193.339035,813.103821 
	C192.157623,795.179749 190.074478,777.315735 188.850708,759.393677 
	C188.163895,749.335266 185.490479,739.716675 183.385910,729.993896 
	C179.533569,712.196777 181.694122,694.916199 186.475464,677.736328 
	C188.483200,670.522339 190.234833,663.160706 193.081726,656.270691 
	C202.031265,634.611023 201.771271,612.552246 197.236526,590.094116 
	C193.379059,570.990051 190.543350,551.718018 190.235321,532.199768 
	C190.061981,521.216858 190.610382,510.218109 190.996140,499.232178 
	C191.275528,491.275726 190.198944,484.157654 185.246536,477.183685 
	C171.110291,457.277039 170.319077,435.409058 178.043579,412.854462 
	C181.066147,404.028870 185.063934,395.624420 189.065781,387.184723 
	C194.094925,376.578522 194.009888,364.948578 193.270157,353.440063 
	C191.451691,325.149292 183.254166,298.160980 176.344498,270.907196 
	C172.901596,257.327393 170.069702,243.511398 169.991959,229.540314 
	C169.848175,203.697159 175.808121,179.444382 191.456390,158.132553 
	C200.471146,145.855087 202.119797,131.907837 199.210785,117.232849 
	C198.571442,114.007637 196.657593,111.478584 194.632126,109.026596 
	C181.477371,93.101738 179.769180,75.332611 186.570816,56.442429 
	C191.109009,43.838539 200.268707,35.602955 213.003693,31.850594 
	C229.511703,26.986513 245.766586,27.998796 260.771149,36.881889 
	C275.171570,45.407326 281.419312,59.081379 282.137512,75.292435 
	C282.330872,79.657204 282.990601,83.408478 285.363739,87.012665 
	C287.283783,89.928726 289.091248,92.954147 290.596710,96.099503 
	C292.725159,100.546440 291.526703,103.651665 286.969086,105.107346 
	C284.180939,105.997864 282.874542,107.006699 284.193512,110.018806 
	C285.153412,112.210915 283.664612,114.244278 283.300568,116.323242 
	C282.484833,120.981728 281.423035,125.473671 281.709747,130.372452 
	C281.977417,134.945663 277.583588,138.035721 271.790344,138.143829 
	C268.324341,138.208511 264.846008,137.545975 261.371307,137.231369 
	C259.014496,137.017975 256.541290,137.458054 256.385345,140.142441 
	C255.891296,148.645782 251.614395,156.449646 252.036484,165.102051 
	C252.239075,169.255188 254.043716,172.435211 256.299255,175.936584 
	C270.224854,197.554092 286.521362,217.965500 292.516174,243.820129 
	C294.143860,250.840149 293.538208,257.761627 290.969971,264.434479 
	C289.854614,267.332458 289.514160,270.009491 290.036224,273.133179 
	C292.384918,287.186157 291.004822,301.141052 289.997131,315.307953 
	C288.792053,332.249908 284.828674,349.101105 287.815735,366.449127 
	C289.905853,378.588348 289.119446,391.355011 284.982086,403.041077 
	C278.847778,420.367462 279.537201,437.596100 282.454895,455.184967 
	C287.594147,486.166229 285.343689,516.871643 278.835663,547.432922 
	C275.047546,565.221802 269.356110,582.451782 264.129547,599.823975 
	C262.151733,606.397888 261.063995,612.962158 261.812836,619.980164 
	C262.682770,628.132996 261.642242,636.139832 258.060028,643.861877 
	C255.640762,649.077026 256.468109,655.496338 253.281464,660.546692 
	C250.893112,664.332031 249.927933,668.376160 249.176697,672.684448 
	C247.483566,682.394775 246.930588,692.233643 246.570999,702.002014 
	C245.918457,719.729675 242.710587,737.048767 239.839981,754.448059 
	C236.502518,774.677124 233.722733,794.926086 236.227570,815.521545 
	C237.145737,823.070923 239.597733,830.079163 242.640961,836.942993 
	C243.536209,838.962280 244.952942,840.692871 246.898727,841.734253 
	C261.857697,849.740845 275.830505,859.653564 291.938477,865.432495 
	C299.479553,868.137878 307.448395,868.953552 315.819794,869.739868 
M291.014557,883.458740 
	C292.406067,884.886292 292.521240,887.865967 295.561920,887.278198 
	C296.609497,887.075745 297.558075,886.385925 297.442505,885.272522 
	C297.175751,882.702454 294.887024,881.947815 293.003265,881.000671 
	C291.684418,880.337524 290.145508,880.127075 288.747650,879.600830 
	C287.721893,879.214844 286.416504,878.931641 286.865601,877.025818 
	C289.070526,876.859497 291.182037,876.267090 293.129059,874.864868 
	C299.086700,870.574036 304.847687,873.082581 310.652344,875.541443 
	C313.050323,876.557312 314.646912,879.020874 317.384613,879.345520 
	C319.452667,874.971436 318.858307,873.408386 315.219299,873.648621 
	C307.436554,874.162476 300.084442,871.785583 292.816986,869.820984 
	C278.666016,865.995850 267.141113,856.488831 253.947769,850.617676 
	C241.957352,845.281860 236.402588,836.043152 233.795517,824.019104 
	C229.483078,804.129700 231.390167,784.280579 234.197418,764.475220 
	C237.367813,742.107727 242.130676,719.996094 243.081741,697.280945 
	C243.692200,682.700928 243.156418,667.691956 251.374435,654.339966 
	C253.163422,651.433289 252.188492,646.906555 253.772354,643.776733 
	C257.721161,635.973572 258.218048,627.799500 257.692902,619.433472 
	C257.203918,611.643127 258.662384,604.212585 260.908539,596.838379 
	C267.113556,576.467041 273.469116,556.156860 277.207458,535.106140 
	C281.225922,512.477966 282.012817,489.782623 279.866211,466.972717 
	C278.760498,455.223053 276.811737,443.550415 275.795380,431.795319 
	C274.899597,421.434662 273.300293,411.341492 269.049438,401.773468 
	C268.492401,400.519745 267.115021,399.332153 268.284576,397.363312 
	C271.539032,399.692535 272.317444,403.297333 273.478760,406.604431 
	C274.679047,410.022522 275.618042,413.532349 276.822418,417.499725 
	C282.702911,399.477875 286.404480,381.842896 283.729614,363.396301 
	C283.157990,359.454132 281.889893,355.316071 282.543854,351.546021 
	C284.966583,337.578979 283.914825,323.325928 286.576965,309.389923 
	C288.494781,299.350342 288.397675,289.179291 286.795959,279.067993 
	C285.772339,272.606049 285.507019,266.437866 288.055237,260.007751 
	C290.618134,253.540588 289.783905,246.519882 287.624023,239.913300 
	C280.274628,217.433075 266.671844,198.312790 253.649765,179.047897 
	C248.685638,171.703934 246.243240,164.556305 248.785645,156.771606 
	C251.225677,149.300476 250.860077,141.363571 254.277786,133.988113 
	C252.259201,133.211288 250.606934,132.446075 248.879868,131.932327 
	C239.490158,129.139145 233.012283,123.651100 231.633591,113.432541 
	C231.342422,111.274406 229.946213,111.117706 228.168259,110.710289 
	C220.957336,109.057861 212.717346,97.284698 213.541153,90.057480 
	C214.060135,85.504379 216.651718,82.562332 221.179474,82.146324 
	C225.332336,81.764771 228.528290,83.597313 229.781799,87.739525 
	C228.955551,89.520966 227.891617,87.986343 227.014954,88.323792 
	C226.467590,89.831139 228.483841,91.817787 225.906891,93.333191 
	C224.850754,89.356918 221.443695,88.447678 218.199036,87.074341 
	C214.972290,92.568298 217.450546,97.111259 220.966217,101.059753 
	C223.809814,104.253418 226.001984,109.530312 231.912048,106.467987 
	C233.228592,108.034370 233.024887,109.814682 233.540710,111.367073 
	C235.214340,116.403984 236.200867,122.010994 241.102722,125.064064 
	C250.142807,130.694565 260.065643,134.065842 270.747498,134.525955 
	C276.151611,134.758728 278.133453,132.127213 277.649414,126.606445 
	C277.476288,124.631538 276.743164,122.620644 277.699402,120.704124 
	C279.802917,116.488167 280.513306,112.102280 279.837982,107.428322 
	C279.519287,105.222374 280.620941,103.673019 282.603790,102.583923 
	C288.428528,99.384598 288.406433,99.348373 284.916199,93.745010 
	C283.154907,90.917404 281.339233,88.121162 279.663574,85.243538 
	C278.392761,83.061096 277.688232,80.740685 277.899841,78.098518 
	C279.051544,63.719055 273.555054,51.836246 262.626801,43.051441 
	C249.011978,32.106987 233.030518,31.121826 216.606476,35.011871 
	C202.606049,38.327885 193.516174,47.256145 189.399368,60.933624 
	C184.371628,77.637596 186.347870,93.219307 197.967484,106.899231 
	C200.706070,110.123413 202.856400,113.558907 203.465698,117.890602 
	C205.704025,133.803879 203.444199,148.525864 193.877808,162.042358 
	C175.558960,187.925339 171.269470,216.969727 175.865326,247.763885 
	C178.918915,268.224304 185.237991,287.924164 189.973862,307.993195 
	C194.568085,327.461945 198.394669,347.079254 197.144394,367.227234 
	C196.727646,373.943146 196.873108,380.970367 193.681290,387.155945 
	C190.162354,393.975433 186.740509,400.819153 184.012665,407.989838 
	C175.150940,431.284698 173.556763,454.260284 188.880035,475.610687 
	C193.789627,482.451385 195.575104,489.504425 195.296600,497.494080 
	C195.128387,502.319550 194.816986,507.139832 194.600403,511.963806 
	C194.211655,520.622742 194.208130,529.279663 194.564316,537.943604 
	C195.531464,561.468201 200.508392,584.447266 203.980164,607.629456 
	C205.732590,619.330994 205.057068,631.287781 202.207718,642.300842 
	C199.545532,652.590454 195.303055,662.719666 192.112991,673.024353 
	C186.806885,690.164429 183.073196,707.615662 186.662170,725.638184 
	C189.488251,739.829651 192.597763,753.917786 193.792648,768.412537 
	C195.584274,790.146118 198.229385,811.816772 197.262299,833.687134 
	C197.055740,838.358765 196.082809,842.842102 194.244873,847.235229 
	C190.631012,855.873535 187.809036,864.778503 188.313934,874.331848 
	C188.684143,881.336914 191.300278,884.331177 198.176697,885.349731 
	C202.959183,886.058228 207.798248,885.902405 212.617386,885.256042 
	C220.042145,884.260132 227.475311,883.044922 234.984375,884.448120 
	C251.297989,887.496765 267.745941,888.892273 284.340820,888.590271 
	C286.116058,888.557922 287.863800,888.337402 288.408234,886.436951 
	C289.029938,884.266479 287.097656,883.688232 285.653137,882.913574 
	C284.007904,882.031189 281.725891,882.333313 280.313660,879.895325 
	C284.516998,879.184998 287.748169,880.190491 291.014557,883.458740 
M311.734680,879.489258 
	C309.349365,877.698364 306.766663,876.467224 303.315552,876.272583 
	C305.427063,878.587524 307.321350,880.407593 308.886444,882.476685 
	C309.824402,883.716675 310.601776,884.516968 312.073456,883.580261 
	C313.795654,882.484009 313.548676,881.212952 311.734680,879.489258 
M301.219391,884.362000 
	C302.010956,885.815613 303.206970,886.029724 304.540802,885.272827 
	C305.504578,884.725891 305.925690,883.660889 305.341797,882.731873 
	C303.687103,880.098999 301.213196,878.833984 297.995972,878.590576 
	C297.804535,881.242981 300.307037,881.943237 301.219391,884.362000 
z"/>
<path fill="#000000" opacity="1.000000" stroke="none" 
	d="
M253.254547,434.524902 
	C248.588242,415.118805 247.065353,395.726471 245.603058,376.312439 
	C244.310074,359.146240 240.637970,342.430542 235.353516,326.060089 
	C234.796768,324.335419 234.293442,322.593506 233.538300,320.114136 
	C236.808304,321.221130 237.221146,319.488800 237.838730,317.251282 
	C243.047546,298.379944 243.724945,279.040100 242.544327,259.773895 
	C241.822891,248.001114 242.711914,236.944458 247.355698,226.176254 
	C247.776779,225.199799 247.543167,223.730057 249.634354,223.538116 
	C250.782211,225.847733 250.207260,228.296432 249.430939,230.515854 
	C245.707504,241.160782 246.581558,251.991165 246.836639,263.031708 
	C247.266418,281.632507 246.839630,300.357117 241.492371,318.466736 
	C239.931122,323.754242 239.845474,328.716187 241.601547,334.026855 
	C247.338898,351.377625 248.917557,369.425903 250.420929,387.529053 
	C251.975479,406.248688 254.381027,424.810974 259.342316,443.108185 
	C262.043823,453.071350 265.938049,462.147675 270.741333,471.075439 
	C275.281158,479.513550 275.668884,488.892944 276.411896,498.163940 
	C276.597321,500.477539 276.596802,502.820404 276.977417,505.100494 
	C277.487061,508.153442 277.430969,510.753235 273.978302,512.073303 
	C271.689117,512.948547 271.748230,515.177612 271.379517,517.101807 
	C270.597168,521.184265 270.082825,525.333923 269.033752,529.344910 
	C267.958740,533.455200 265.921173,536.654724 260.979370,533.984375 
	C256.730896,539.198059 256.616821,538.746277 251.259354,535.639954 
	C247.471512,533.443726 243.418900,532.239929 243.153915,526.975220 
	C243.136765,526.634338 242.126892,526.056946 241.593307,526.072998 
	C236.200287,526.234741 234.871902,522.075806 234.999405,518.402039 
	C235.437805,505.770081 232.582458,493.616089 230.572861,481.330200 
	C229.999771,477.826477 229.942642,474.317810 230.673126,470.894287 
	C233.666107,456.867279 228.325027,444.347229 223.748611,431.696472 
	C216.896988,412.756409 208.798386,394.252777 203.576614,374.744354 
	C201.211655,365.908936 199.285156,356.986572 198.566696,347.798248 
	C198.207458,343.204041 195.560883,338.601166 195.932999,334.168793 
	C197.824127,311.643188 192.161163,289.889465 189.969620,267.792328 
	C189.658020,264.650421 189.665314,261.465973 189.697388,258.302948 
	C189.790253,249.144638 190.072693,240.011169 186.706512,231.191742 
	C185.754700,228.697983 185.058701,225.823135 187.035599,222.883621 
	C189.720764,228.937363 193.274323,234.953796 193.119904,241.619370 
	C192.560883,265.751923 197.593658,289.291351 199.922455,313.110382 
	C200.408508,318.081818 200.633423,323.065430 199.648438,328.050049 
	C199.267365,329.978485 198.836136,332.304108 199.544357,333.975708 
	C204.734650,346.226013 203.099976,359.692078 206.754898,372.253815 
	C212.161774,390.836975 219.335358,408.749664 226.010757,426.863861 
	C229.397568,436.054291 233.109894,445.171051 234.732162,454.954285 
	C235.259766,458.135925 235.564133,461.255249 235.011169,464.367920 
	C233.474854,473.015961 233.505508,481.691071 235.543335,490.154846 
	C237.398209,497.858734 238.031555,505.555054 238.029541,513.415100 
	C238.028809,516.223572 237.411255,519.380859 240.327240,522.603577 
	C242.839981,514.796997 241.721466,507.135620 243.813217,499.908722 
	C248.465073,509.542969 244.199661,520.477295 248.293915,530.183167 
	C252.740509,520.688660 249.574890,510.345306 251.637695,500.070618 
	C254.493637,501.751038 254.263992,503.819550 254.264603,505.675812 
	C254.267303,513.831726 254.818604,522.004333 253.573593,530.128418 
	C253.313568,531.825134 253.258575,533.870422 255.330063,534.216492 
	C257.651825,534.604309 257.661407,532.335938 258.006531,530.784180 
	C259.864471,522.430115 260.043213,513.964966 259.753113,505.451782 
	C259.684784,503.446991 258.909302,501.066895 261.819305,499.100586 
	C265.420044,509.792145 261.688599,520.630676 263.561798,531.086792 
	C272.159058,515.093567 266.575928,497.823425 268.486450,481.212769 
	C272.490875,489.610321 270.339630,498.908081 272.693542,507.535034 
	C274.195282,505.238007 272.892181,502.927063 272.895172,500.665344 
	C272.911621,488.129364 270.618103,476.075104 263.539062,465.511932 
	C257.283112,456.177002 256.856873,445.082153 253.254547,434.524902 
z"/>
<path fill="#000000" opacity="1.000000" stroke="none" 
	d="
M261.687378,261.366516 
	C255.464813,255.686798 251.403671,249.146545 249.796967,241.025970 
	C256.635895,254.252213 265.382263,265.050415 282.684357,267.109283 
	C276.452393,269.655304 269.674774,267.450134 261.687378,261.366516 
z"/>
<path fill="#000000" opacity="1.000000" stroke="none" 
	d="
M206.335236,825.981689 
	C206.563385,830.319397 205.978104,834.130798 205.065384,837.814331 
	C203.718292,843.250793 204.635422,847.978577 208.232086,852.233459 
	C208.745102,852.840393 209.407150,853.460938 208.619904,854.827637 
	C205.401749,853.920166 203.606293,851.572021 202.438156,848.586914 
	C201.477005,846.130798 203.767288,818.831848 205.327377,815.664795 
	C207.026825,819.048218 206.024139,822.360474 206.335236,825.981689 
z"/>
<path fill="#000000" opacity="1.000000" stroke="none" 
	d="
M222.184265,166.202118 
	C235.593948,169.222641 246.508865,179.941467 246.593063,189.910278 
	C245.056351,189.968414 244.778046,188.673859 244.306320,187.691193 
	C239.758804,178.217758 232.736252,171.598541 222.521744,168.576401 
	C221.535721,168.284653 219.936920,168.475677 220.143890,166.729446 
	C220.174850,166.468369 221.244415,166.330383 222.184265,166.202118 
z"/>
<path fill="#000000" opacity="1.000000" stroke="none" 
	d="
M241.439728,615.114990 
	C244.671204,611.928955 248.007248,609.448303 252.429199,607.637878 
	C250.129990,612.735046 244.510559,616.429077 241.439728,615.114990 
z"/>
</svg>